# xmcd
#
# Track frame offsets: 
#        150
#        7571
#        28697
#        42141
#        59229
#        85041
#        92000
#        127747
#
# Disc length: 2387 seconds
#
# Revision: 0
# Processed by: cddbd v1.5.2PL0 Copyright (c) Steve Scherf et al.
# Submitted via: ExactAudioCopy v1.0b3
#
DISCID=52095108
DTITLE=Grouper - Ruins
DYEAR=2014
DGENRE=Ambient
TTITLE0=Made of Metal
TTITLE1=Clearing
TTITLE2=Call Across Rooms
TTITLE3=Labyrinth
TTITLE4=Lighthouse
TTITLE5=Holofernes
TTITLE6=Holding
TTITLE7=Made of Air
EXTD=
EXTT0=
EXTT1=
EXTT2=
EXTT3=
EXTT4=
EXTT5=
EXTT6=
EXTT7=
PLAYORDER=
